<svg version="1.1" id="Layer_1" xmlns="http://www.w3.org/2000/svg" xmlns:xlink="http://www.w3.org/1999/xlink" x="0px" y="0px" viewBox="0 0 500 500" style="width: 143px;" xml:space="preserve" data-imageid="decision-6" imageName="Decision" class="illustrations_image">
<style type="text/css">
	.st0_decision-6{fill:#68E1FD;}
	.st1_decision-6{fill:#093F68;}
	.st2_decision-6{fill:#725858;}
	.st3_decision-6{fill:#FFC9B0;}
	.st4_decision-6{fill:#FFFFFF;}
	.st5_decision-6{fill:#FFBC0E;}
	.st6_decision-6{fill:#F56132;}
	.st7_decision-6{fill:#70CC40;}
</style>
<g id="character_decision-6">
	<path class="st0_decision-6 targetColor" d="M421,285.4c-0.5,0.4-20.5,60.6-58.2,68.7c-26,5.6-57.5-4.6-57.5-4.6v77.2H196.9v-83.6&#10;&#9;&#9;c-4,2.6-23.1,18.3-47.4,16.5c-14.6-1.1-30.7-3.9-47.2-11.7c-10.6-5-19.3-13.3-24.9-23.6l17-24.5c10.6,8.4,43,28.5,66.2,21&#10;&#9;&#9;C175,316,184.3,307,191,298.2c8.4-11,20.5-18.4,34.1-20.9l0,0c2-0.3,4-0.4,6.1-0.4H271c2,0,4.1,0.1,6.1,0.4l0,0&#10;&#9;&#9;c28.2,0,50.4,41.9,78.7,39.5c24.2-2.1,34.3-41.9,34.3-41.9L421,285.4z" style="fill: rgb(104, 225, 253);"/>
	<path class="st1_decision-6" d="M305.3,428.6H196.9c-1,0-1.9-0.8-1.9-1.9v-80c-7.1,5-24.6,16.4-45.7,14.7c-18.4-1.4-33.6-5.2-47.9-11.9&#10;&#9;&#9;c-10.7-5-19.5-13.2-25.2-23.5c-0.2-0.3-0.3-0.5-0.3-0.6c-0.5-0.6-0.6-1.6-0.1-2.3l17-24.5c0.3-0.4,0.7-0.7,1.3-0.8&#10;&#9;&#9;c0.5-0.1,1,0.1,1.4,0.4c10.3,8.2,42.1,28,64.4,20.7c11.9-3.9,21.3-10.9,29.6-22c8.6-11.4,21.2-19.1,35.2-21.6h0.2&#10;&#9;&#9;c2.1-0.3,4.2-0.4,6.2-0.4H271c2.1,0,4.2,0.1,6.2,0.4c14.3,0.1,27,10.3,39.3,20.2c13,10.5,25.3,20.4,39.1,19.2&#10;&#9;&#9;c22.6-2,32.5-40.1,32.6-40.5c0.1-0.5,0.5-0.9,0.9-1.2c0.5-0.3,1-0.3,1.5-0.1l30.9,10.5c1,0.3,1.5,1.4,1.2,2.4&#10;&#9;&#9;c0,0.1-0.1,0.2-0.2,0.3c-0.1,0.2-0.3,0.7-0.5,1.3c-8.9,22.7-28.3,61.7-58.9,68.3c-22.3,4.8-48.1-1.6-56-3.9v74.7&#10;&#9;&#9;C307.1,427.8,306.3,428.6,305.3,428.6z M198.8,424.9h104.6v-75.4c0-1,0.9-1.9,1.9-1.9c0.2,0,0.4,0,0.5,0.1&#10;&#9;&#9;c0.3,0.1,31.4,10,56.5,4.5c28.8-6.2,47.5-43.8,56.1-65.8l-27.2-9.2c-2.4,8.2-13,39.4-35.4,41.3c-15.2,1.3-28.7-9.5-41.7-20&#10;&#9;&#9;c-11.8-9.6-24.1-19.4-37.1-19.4h-0.3c-1.9-0.3-3.9-0.4-5.8-0.4h-39.9c-1.9,0-3.9,0.1-5.8,0.4l0,0c-13.1,2.4-24.8,9.6-32.8,20.1&#10;&#9;&#9;c-8.7,11.6-19,19.2-31.4,23.3c-22.8,7.5-54.2-11-66.3-20.1l-15.2,21.9c5.4,9.5,13.6,17.2,23.5,21.8c13.8,6.5,28.6,10.2,46.6,11.6&#10;&#9;&#9;c21.2,1.6,38.8-10.9,44.6-15c0.7-0.5,1.2-0.9,1.6-1.1c0.6-0.4,1.3-0.4,1.9-0.1c0.6,0.3,1,0.9,1,1.6L198.8,424.9z"/>
	<path class="st2_decision-6" d="M215.8,77.4c18.5-5.1,38.1-5.9,56.5-0.1c16.8,5.3,30,16.7,48.2,18c6.5,0.5,13.5-0.2,18.5-4.4&#10;&#9;&#9;c-0.4,0.4,0,21.1-15,32.5c0,0,4,10.7,5.3,15.4c2.4,8.4,3.3,13.6,3.1,26.8c-0.1,3.7,4,34.4-0.9,35.2l-7.2,1.1l-91.4,14l-48.6,7.4&#10;&#9;&#9;c-3.3,0.5-7.5,2.3-10.8,1.9c-4.6-0.6-9.3-6.4-12.2-9.7c-7.6-8.8-12.5-19.5-16.2-30.4c-3-8.7-5.3-17.7-7-26.8&#10;&#9;&#9;c-1.4-7.4-2.2-15.3,0.9-22.1s11.6-11.7,18.3-8.4c-0.3-6.8,4.7-13.4,8.9-18.5c3.6-4.4,7.5-8.5,11.8-12.2c8.4-7.2,18-12.8,28.3-16.7&#10;&#9;&#9;C209.5,79.3,212.6,78.3,215.8,77.4z"/>
	<path class="st1_decision-6" d="M174.7,227.1c-0.4,0-0.8,0-1.2-0.1c-5-0.6-9.7-6.1-12.8-9.6l-0.6-0.7c-6.8-7.8-12-17.7-16.6-31&#10;&#9;&#9;c-3-8.8-5.4-17.8-7.1-27c-1.4-7.8-2.3-15.9,1.1-23.2c2.1-4.5,5.9-7.9,10.5-9.7c2.5-0.9,5.2-1.1,7.8-0.6c0.9-6.7,5.8-12.9,9.2-17.1&#10;&#9;&#9;c3.6-4.5,7.6-8.7,12-12.4c8.5-7.3,18.3-13.1,28.9-17c3-1.1,6.2-2.2,9.4-3l0,0c20.1-5.6,40.1-5.6,57.6-0.1c6.4,2.2,12.6,4.9,18.5,8&#10;&#9;&#9;c9.5,4.7,18.4,9.1,29.3,9.9c7.6,0.6,13.4-0.8,17.1-4c0.8-0.7,1.9-0.6,2.6,0.1c0.5,0.5,0.6,1.2,0.4,1.9c0,0.2,0,0.5-0.1,0.9&#10;&#9;&#9;c-1.3,14.2-6.1,24.8-14.4,31.6c1.1,3,3.9,10.5,4.9,14.2c2.3,8.3,3.4,13.7,3.1,27.3c0,0.7,0.2,3,0.4,5.6c2,23.4,1.4,30.8-2.9,31.4&#10;&#9;&#9;l-147.2,22.5c-1.2,0.2-2.4,0.5-3.5,0.8C179.1,226.6,176.9,226.9,174.7,227.1z M152.9,128.6c-1.3,0-2.5,0.2-3.7,0.7&#10;&#9;&#9;c-3.7,1.4-6.7,4.2-8.3,7.7c-2.9,6.4-2.1,13.8-0.8,21c1.6,9,4,17.8,6.9,26.5c4.4,12.9,9.4,22.3,15.9,29.8l0.6,0.7&#10;&#9;&#9;c2.6,3,6.8,7.9,10.4,8.4c1.8,0.2,4.1-0.4,6.3-1c1.3-0.4,2.6-0.7,3.9-0.9l147-22.5c1.4-1.8,1.4-11-0.1-27.5c-0.3-3-0.4-5-0.4-5.9&#10;&#9;&#9;c0.2-13.2-0.7-18.1-3-26.2c-1.3-4.5-5.2-15.1-5.3-15.2c-0.3-0.8,0-1.6,0.6-2.1c7.5-5.7,12.2-14.9,13.8-27.2&#10;&#9;&#9;c-4.2,2.2-9.7,3-16.3,2.5c-11.6-0.9-21.3-5.7-30.7-10.3c-5.8-3-11.8-5.7-18-7.8c-16.8-5.3-36-5.3-55.4,0.1l0,0&#10;&#9;&#9;c-3.1,0.9-6.1,1.8-9.1,2.9c-10.1,3.8-19.6,9.3-27.8,16.4c-4.2,3.6-8.1,7.7-11.6,12c-3.5,4.3-8.8,10.9-8.5,17.3&#10;&#9;&#9;c0,0.7-0.3,1.3-0.8,1.6c-0.5,0.4-1.2,0.4-1.8,0.1C155.6,128.9,154.3,128.6,152.9,128.6z"/>
	<polyline class="st3_decision-6" points="239.1,278.7 239.1,263.9 264.8,263.9 264.8,278.7 &#9;"/>
	<path class="st1_decision-6" d="M264.8,280.6c-1,0-1.8-0.8-1.8-1.9v-13h-22v13c0,1-0.8,1.9-1.9,1.9c-1,0-1.9-0.8-1.9-1.9l0,0v-14.8&#10;&#9;&#9;c0-1,0.8-1.9,1.9-1.9h25.8c1,0,1.9,0.8,1.9,1.9v14.8C266.8,279.7,265.9,280.6,264.8,280.6C264.9,280.6,264.9,280.6,264.8,280.6z"/>
	
		<ellipse transform="matrix(0.9867 -0.1628 0.1628 0.9867 -32.0338 30.9389)" class="st3_decision-6" cx="172.7" cy="210.9" rx="25" ry="21.6"/>
	<path class="st1_decision-6" d="M171.5,234.4c-5.2,0-10.3-1.3-14.7-4c-5.6-3.2-9.5-8.8-10.6-15.1c-2.1-12.7,8.1-25.1,22.7-27.5&#10;&#9;&#9;s28.2,6,30.3,18.7l0,0c1,6.4-0.9,12.9-5.2,17.7c-4.5,5.2-10.7,8.7-17.5,9.7C174.9,234.3,173.2,234.4,171.5,234.4z M173.9,191.1&#10;&#9;&#9;c-1.5,0-3,0.1-4.4,0.4c-12.6,2.1-21.4,12.5-19.6,23.2c0.9,5.3,4.2,9.9,8.8,12.6c10.7,6.2,24.3,3.9,32.5-5.4c3.6-4,5.1-9.4,4.3-14.7&#10;&#9;&#9;C194,197.7,184.7,191.1,173.9,191.1z"/>
	
		<ellipse transform="matrix(0.9867 -0.1628 0.1628 0.9867 -26.2501 54.0435)" class="st3_decision-6" cx="316.6" cy="187.2" rx="25" ry="21.6"/>
	<path class="st1_decision-6" d="M315.3,210.7c-5.2,0-10.3-1.3-14.7-4c-10.3-5.8-13.9-18.8-8.1-29.1c0.8-1.3,1.7-2.6,2.7-3.7&#10;&#9;&#9;c9.4-10.7,25-13.3,37.3-6.2c10.3,5.8,13.9,18.8,8.1,29.1c-0.8,1.3-1.7,2.6-2.7,3.7c-4.5,5.2-10.7,8.7-17.5,9.8&#10;&#9;&#9;C318.8,210.6,317.1,210.7,315.3,210.7z M317.8,167.4c-1.5,0-3,0.1-4.5,0.4c-5.9,0.9-11.4,3.9-15.3,8.5c-6.5,7.2-6,18.4,1.2,24.9&#10;&#9;&#9;c1,0.9,2.1,1.7,3.3,2.3c10.7,6.2,24.3,3.9,32.5-5.4c3.6-4,5.1-9.4,4.3-14.7l0,0c-0.9-5.3-4.2-9.9-8.8-12.6&#10;&#9;&#9;C326.7,168.6,322.3,167.4,317.8,167.4L317.8,167.4z"/>
	<path class="st3_decision-6" d="M256.8,268.3L256.8,268.3c-41.1,6.8-79.9-21-86.7-62.1c0,0,0,0,0,0l-4.5-27.1c-3.1-18.8,1.2-32.9,17-36.2&#10;&#9;&#9;c15.5-3.3,57.5,13.6,83.6,9.8c10.7-1.6,42.2-20.6,46.2-1.7l6.5,30.6C325.6,222.6,297.8,261.5,256.8,268.3z"/>
	<path class="st1_decision-6" d="M244.3,271.1c-37.8-0.1-69.9-27.5-76.1-64.7l-4.5-27c-3.6-21.8,2.8-35,18.5-38.3c7.5-1.6,20,1.1,34.5,4.2&#10;&#9;&#9;c16.6,3.6,35.4,7.6,49.2,5.5c2.6-0.4,6.8-2,11.3-3.7c10.5-4,23.7-9,31.4-4.8c2.9,1.6,4.8,4.4,5.6,8.2l6.5,30.6&#10;&#9;&#9;c7,42.2-21.6,82-63.8,89C252.8,270.9,248.5,271.2,244.3,271.1L244.3,271.1z M187.4,144.3c-1.5,0-2.9,0.1-4.4,0.4&#10;&#9;&#9;c-13.6,2.9-18.9,14.3-15.6,34.1l4.5,27.1c6.6,40.1,44.5,67.2,84.6,60.6c0,0,0,0,0,0l0,0c40.1-6.6,67.2-44.4,60.6-84.5c0,0,0,0,0,0&#10;&#9;&#9;l-6.5-30.5c-0.6-2.8-1.8-4.6-3.8-5.7c-6.2-3.4-19,1.4-28.3,5c-4.9,1.9-9.1,3.4-12,3.9c-14.5,2.1-33.6-2-50.5-5.6&#10;&#9;&#9;C205,146.5,194.5,144.3,187.4,144.3z"/>
	<circle class="st1_decision-6" cx="215.5" cy="200" r="6.6"/>
	<circle class="st1_decision-6" cx="287.4" cy="184.7" r="6.6"/>
	<path class="st1_decision-6" d="M242.9,218.7h-0.1c-1,0-1.9-0.8-1.9-1.9s0.8-1.9,1.9-1.9h0.1c0.6,0,6.1,0,9.8-1.6c0.3-1.8-3.4-8.5-8-14.8&#10;&#9;&#9;c-0.6-0.8-0.4-2,0.4-2.6c0.8-0.6,2-0.4,2.6,0.4c2.3,3.1,9.8,13.6,8.6,18.1c-0.2,1-1,1.8-1.9,2.3C250,218.6,244,218.7,242.9,218.7z"/>
	<path class="st1_decision-6" d="M193.7,187.7c-1.6-0.2-2.8-1.7-2.6-3.3c0.2-1.3,1.1-2.3,2.3-2.6l30.5-3.2c1.6-0.5,3.3,0.5,3.7,2.1&#10;&#9;&#9;s-0.5,3.3-2.1,3.7c-0.3,0.1-0.7,0.1-1,0.1l-30.4,3.2L193.7,187.7z"/>
	<path class="st1_decision-6" d="M268.8,181c-1.7-0.1-2.9-1.5-2.8-3.2c0.1-1,0.7-2,1.6-2.5l28-12.5c1.4-0.9,3.2-0.6,4.2,0.8&#10;&#9;&#9;c0.9,1.4,0.6,3.2-0.8,4.2c-0.3,0.2-0.6,0.3-1,0.4l-28,12.5C269.6,180.9,269.2,181,268.8,181z"/>
	<path class="st1_decision-6" d="M226.3,243.6c-1,0-1.8-0.9-1.8-1.9c0-0.9,0.7-1.7,1.7-1.8c0.3,0,27.9-2.5,48.2-8c1-0.3,2,0.3,2.3,1.3&#10;&#9;&#9;c0.3,1-0.3,2-1.3,2.3c-20.6,5.5-48.6,8-48.9,8.1L226.3,243.6z"/>
	<polygon class="st4_decision-6" points="275.9,276.9 263,353.4 252.6,415.2 240.4,351.2 226.2,276.9 &#9;"/>
	<path class="st1_decision-6" d="M252.6,417c-0.9,0-1.7-0.6-1.8-1.5l-26.4-138.3c-0.2-1,0.5-2,1.5-2.2c0.1,0,0.2,0,0.4,0h49.7&#10;&#9;&#9;c1,0,1.9,0.8,1.9,1.9c0,0.1,0,0.2,0,0.3l-23.3,138.3C254.3,416.4,253.5,417,252.6,417L252.6,417z M228.5,278.7l24,125.9l21.2-125.9&#10;&#9;&#9;H228.5z"/>
	<polygon class="st5_decision-6" points="262.5,353.4 252.1,415.2 239.9,351.2 247.8,282.9 247.9,281.8 247.9,281.7 253.3,281.7 253.3,281.8 &#10;&#9;&#9;253.4,282.9 &#9;"/>
	<path class="st1_decision-6" d="M252.1,417c-0.9,0-1.7-0.6-1.8-1.5l-12.2-64c0-0.2,0-0.4,0-0.6l8-69.4c0.1-1,0.9-1.7,1.9-1.7h5.4&#10;&#9;&#9;c1,0,1.9,0.8,1.9,1.9l0.1,0.9l9.1,70.5c0,0.2,0,0.4,0,0.5L254,415.5C253.8,416.4,253.1,417,252.1,417L252.1,417z M241.8,351.1&#10;&#9;&#9;l10.2,53.5l8.6-51.3l-9-69.8h-2L241.8,351.1z"/>
	<path class="st5_decision-6" d="M242.5,278h15.8c1.6,0,2.9,1.3,2.9,2.9v14.7c0,1.6-1.3,2.9-2.9,2.9h-15.8c-1.6,0-2.9-1.3-2.9-2.9v-14.7&#10;&#9;&#9;C239.6,279.3,240.9,278,242.5,278z"/>
	<path class="st1_decision-6" d="M255.8,300.4H245c-4,0-7.3-3.3-7.3-7.3v-9.7c0-4,3.3-7.3,7.3-7.3h10.8c4,0,7.3,3.3,7.3,7.3v9.7&#10;&#9;&#9;C263.1,297.1,259.8,300.4,255.8,300.4z M245,279.9c-2,0-3.5,1.6-3.6,3.5v9.7c0,2,1.6,3.5,3.6,3.5h10.8c2,0,3.5-1.6,3.5-3.5v-9.7&#10;&#9;&#9;c0-2-1.6-3.5-3.5-3.5H245z"/>
	<path class="st1_decision-6" d="M196.9,351.4c-1,0-1.9-0.8-1.9-1.9v-30.6c0-1,0.8-1.9,1.9-1.9s1.9,0.8,1.9,1.9v30.6&#10;&#9;&#9;C198.8,350.6,197.9,351.4,196.9,351.4L196.9,351.4z"/>
	<path class="st1_decision-6" d="M305.3,351.4c-1,0-1.9-0.8-1.9-1.9v-30.6c0-1,0.8-1.9,1.9-1.9c1,0,1.9,0.8,1.9,1.9v30.6&#10;&#9;&#9;C307.1,350.6,306.3,351.4,305.3,351.4L305.3,351.4z"/>
</g>
<g id="no_decision-6">
	<path class="st1_decision-6" d="M70.2,189.1l3.6-0.4c1.2-0.1,2.2,0.7,2.4,1.9L97,367.7c0.1,1.2-0.7,2.2-1.9,2.4l-3.6,0.4&#10;&#9;&#9;c-1.2,0.1-2.2-0.7-2.4-1.9L68.3,191.4C68.2,190.3,69,189.2,70.2,189.1z"/>
	<path class="st1_decision-6" d="M92.9,372.1c-3,0-5.4-2.2-5.8-5.1L66.7,193.5c-0.4-3.2,1.9-6.1,5.1-6.5c3.2-0.4,6.1,1.9,6.5,5.1l20.4,173.5&#10;&#9;&#9;c0.4,3.2-1.9,6.1-5.1,6.5l0,0C93.3,372.1,93.1,372.1,92.9,372.1z M93.3,370.2L93.3,370.2z M72.5,190.7h-0.2c-1.2,0.1-2,1.2-1.8,2.4&#10;&#9;&#9;l20.4,173.5c0.1,1.2,1.2,2,2.3,1.9l0,0c1.2-0.1,2-1.2,1.9-2.3c0,0,0,0,0,0L74.6,192.6C74.5,191.5,73.6,190.7,72.5,190.7z"/>
	<path class="st6_decision-6" d="M16.3,204l113.4-13.3c1.8-0.2,3.4,1.1,3.7,2.9l7.9,67.1c0.2,1.8-1.1,3.4-2.9,3.7L24.9,277.7&#10;&#9;&#9;c-1.8,0.2-3.4-1.1-3.7-2.9l-7.9-67.1C13.2,205.8,14.5,204.2,16.3,204z"/>
	<path class="st1_decision-6" d="M27.1,279.2c-4.1,0-7.5-3-7.9-7.1l-7.2-61.5c-0.5-4.4,2.6-8.4,7-8.9l107.8-12.7c4.4-0.5,8.4,2.6,8.9,7&#10;&#9;&#9;l7.2,61.5c0.5,4.4-2.6,8.4-7,8.9L28,279.2C27.7,279.2,27.4,279.2,27.1,279.2z M127.6,192.8h-0.5L19.3,205.5c-2.3,0.3-4,2.4-3.8,4.8&#10;&#9;&#9;l7.2,61.5c0.3,2.3,2.4,4,4.8,3.8l107.8-12.7l0.2,1.9l-0.2-1.9c2.3-0.3,4-2.4,3.8-4.8l-7.2-61.5&#10;&#9;&#9;C131.6,194.4,129.8,192.8,127.6,192.8L127.6,192.8z"/>
	<polygon class="st4_decision-6" points="111.9,221.8 68.6,226.9 67.1,213.9 41.8,238.3 72.1,256.3 70.5,243.2 113.8,238.1 &#9;"/>
	<path class="st1_decision-6" d="M72.1,258.1c-0.3,0-0.7-0.1-0.9-0.3l-30.2-17.9c-0.5-0.3-0.8-0.8-0.9-1.4c-0.1-0.6,0.1-1.1,0.6-1.6l25.2-24.4&#10;&#9;&#9;c0.7-0.7,1.9-0.7,2.6,0c0.3,0.3,0.5,0.7,0.5,1.1l1.3,11.2l41.5-4.8c1-0.1,1.9,0.6,2.1,1.6c0,0,0,0,0,0l1.9,16.3&#10;&#9;&#9;c0.1,1-0.6,1.9-1.7,2c0,0,0,0,0,0l-41.4,4.9l1.3,11.2c0.1,1-0.6,1.9-1.6,2.1C72.2,258.1,72.1,258.1,72.1,258.1L72.1,258.1z&#10;&#9;&#9; M44.9,238l24.9,14.8l-1.1-9.3c-0.1-1,0.6-1.9,1.6-2.1l41.5-4.9l-1.5-12.6l-41.5,4.9c-1,0.1-1.9-0.6-2.1-1.6l-1.1-9.3L44.9,238z"/>
	<path class="st3_decision-6" d="M70.1,298l19.4-2.3c2.3-0.3,4.3,1.4,4.6,3.6l3.2,27.3c0.3,2.3-1.4,4.3-3.6,4.6l-19.4,2.3&#10;&#9;&#9;c-2.3,0.3-4.3-1.4-4.6-3.6l-3.2-27.3C66.3,300.3,67.9,298.3,70.1,298z"/>
	<path class="st1_decision-6" d="M77,335c-4.8,0-8.9-3.6-9.5-8.4l-2.4-20.2c-0.6-5.2,3.1-10,8.4-10.6l12.3-1.4c5.2-0.6,10,3.1,10.6,8.3&#10;&#9;&#9;c0,0,0,0,0,0l2.4,20.2c0.6,5.2-3.1,10-8.4,10.6l0,0l-12.3,1.5C77.7,335,77.4,335,77,335z M90.2,331.6L90.2,331.6z M86.9,298&#10;&#9;&#9;c-0.2,0-0.5,0-0.7,0l-12.3,1.5c-3.2,0.4-5.5,3.3-5.1,6.5l2.4,20.2c0.4,3.2,3.3,5.5,6.5,5.1l12.3-1.5c3.2-0.4,5.5-3.3,5.1-6.5&#10;&#9;&#9;l-2.4-20.2c-0.2-1.5-1-2.9-2.2-3.9C89.5,298.4,88.2,298,86.9,298z"/>
	<path class="st3_decision-6" d="M96.6,298.1l4.5-0.5c1.4-0.2,2.7,0.9,2.9,2.3l1.9,15.9c0.2,1.4-0.9,2.7-2.3,2.9l-4.5,0.5&#10;&#9;&#9;c-1.4,0.2-2.7-0.9-2.9-2.3L94.3,301C94.1,299.5,95.1,298.3,96.6,298.1z"/>
	<path class="st1_decision-6" d="M100.7,320.8c-3.4,0-6.2-2.5-6.6-5.9l-1.3-11.4c-0.7-3.6,1.7-7.2,5.3-7.9s7.2,1.7,7.9,5.3&#10;&#9;&#9;c0.1,0.3,0.1,0.7,0.1,1l1.3,11.4c0.4,3.7-2.2,7-5.9,7.4C101.2,320.8,101,320.8,100.7,320.8z M99.4,299.6c-0.1,0-0.2,0-0.4,0&#10;&#9;&#9;c-1.6,0.2-2.8,1.7-2.6,3.3c0,0,0,0,0,0l1.3,11.4c0.1,0.8,0.5,1.5,1.1,2c0.6,0.5,1.4,0.7,2.2,0.6l0,0c0.8-0.1,1.5-0.5,2-1.1&#10;&#9;&#9;c0.5-0.6,0.7-1.4,0.6-2.2l-1.3-11.5C102.2,300.8,100.9,299.7,99.4,299.6L99.4,299.6z"/>
</g>
<g id="yes_decision-6">
	<path class="st1_decision-6" d="M396.9,331.2l-3.6-0.7c-1.2-0.2-1.9-1.3-1.7-2.5l33.9-174.8c0.2-1.2,1.3-1.9,2.5-1.7l3.6,0.7&#10;&#9;&#9;c1.2,0.2,1.9,1.3,1.7,2.5l-33.9,174.8C399.2,330.7,398.1,331.5,396.9,331.2z"/>
	<path class="st1_decision-6" d="M396.3,334.2c-0.4,0-0.7,0-1.1-0.1l0,0c-3.2-0.6-5.2-3.7-4.6-6.8L423,155.7c0.6-3.2,3.7-5.3,6.8-4.7&#10;&#9;&#9;c3.2,0.6,5.3,3.7,4.7,6.8l0,0L402,329.5C401.5,332.3,399.1,334.2,396.3,334.2L396.3,334.2z M428.7,154.6c-1,0-1.9,0.7-2.1,1.7&#10;&#9;&#9;L394.2,328c-0.2,1.2,0.5,2.3,1.7,2.5c0,0,0,0,0,0l0,0c0.6,0.1,1.1,0,1.6-0.3c0.5-0.3,0.8-0.8,0.9-1.4l32.4-171.6&#10;&#9;&#9;c0.2-1.1-0.5-2.2-1.7-2.5c0,0,0,0,0,0C429,154.6,428.8,154.6,428.7,154.6z"/>
	<path class="st7_decision-6" d="M470.2,244.8l-112.2-21.2c-1.8-0.3-3-2.1-2.6-3.9l12.5-66.4c0.3-1.8,2.1-3,3.9-2.6l112.2,21.2&#10;&#9;&#9;c1.8,0.3,3,2.1,2.6,3.9L474,242.1C473.7,243.9,472,245.1,470.2,244.8z"/>
	<path class="st1_decision-6" d="M468.6,246.2c-0.5,0-1-0.1-1.5-0.1l-106.6-20.1l0,0c-4.3-0.8-7.2-5-6.4-9.3l11.5-60.8c0.8-4.3,5-7.2,9.3-6.4&#10;&#9;&#9;c0,0,0,0,0,0l106.6,20.1c4.3,0.8,7.2,5,6.4,9.4l-11.5,60.8C475.7,243.4,472.4,246.2,468.6,246.2L468.6,246.2z M361.1,222.2&#10;&#9;&#9;l106.6,20.1c2.3,0.4,4.6-1.1,5-3.4l11.5-60.8c0.4-2.3-1.1-4.6-3.4-5L374.2,153c-1.1-0.2-2.3,0-3.2,0.7c-0.9,0.6-1.6,1.6-1.8,2.7&#10;&#9;&#9;l-11.5,60.8C357.3,219.6,358.8,221.8,361.1,222.2L361.1,222.2z"/>
	<polygon class="st4_decision-6" points="387.4,183 430.2,191.1 432.6,178.2 456.1,204.3 424.7,220.1 427.1,207.2 384.3,199.1 &#9;"/>
	<path class="st1_decision-6" d="M424.7,222c-0.4,0-0.8-0.1-1.1-0.4c-0.6-0.4-0.8-1.1-0.7-1.8l2.1-11.1l-41-7.7c-1-0.2-1.7-1.2-1.5-2.2&#10;&#9;&#9;c0,0,0,0,0,0l3.1-16.2c0.2-1,1.2-1.7,2.2-1.5l41,7.8l2.1-11.1c0.2-1,1.2-1.7,2.2-1.5c0.4,0.1,0.8,0.3,1,0.6l23.5,26.1&#10;&#9;&#9;c0.7,0.8,0.6,1.9-0.1,2.6c-0.1,0.1-0.3,0.2-0.4,0.3l-31.4,15.8C425.3,221.9,425,222,424.7,222z M386.5,197.7l41,7.8&#10;&#9;&#9;c1,0.2,1.7,1.2,1.5,2.2l-1.7,9.2l25.9-13l-19.3-21.5l-1.7,9.1c-0.2,1-1.2,1.7-2.2,1.5l-41-7.7L386.5,197.7z"/>
	<path class="st3_decision-6" d="M417,297l-19.2-3.6c-2.2-0.4-3.7-2.6-3.3-4.8l5.1-27c0.4-2.2,2.6-3.7,4.8-3.3l19.2,3.6&#10;&#9;&#9;c2.2,0.4,3.7,2.6,3.3,4.8l-5.1,27C421.4,295.9,419.3,297.4,417,297z"/>
	<path class="st1_decision-6" d="M415,298.3c-0.6,0-1.2-0.1-1.8-0.2l-12.2-2.3l0,0c-5.2-1-8.6-6-7.6-11.1l3.8-20c1-5.2,6-8.6,11.1-7.6&#10;&#9;&#9;c0,0,0,0,0,0l12.2,2.3c5.2,1,8.6,6,7.6,11.1l-3.8,20C423.5,295,419.6,298.3,415,298.3z M401.7,292.2l12.2,2.3&#10;&#9;&#9;c3.2,0.6,6.2-1.5,6.8-4.6c0,0,0,0,0,0l3.8-20c0.6-3.2-1.5-6.2-4.6-6.8c0,0,0,0,0,0l-12.2-2.3c-3.2-0.6-6.2,1.5-6.8,4.6c0,0,0,0,0,0&#10;&#9;&#9;l-3.8,20C396.5,288.5,398.6,291.6,401.7,292.2z"/>
	<path class="st3_decision-6" d="M393.4,281l-4.4-0.8c-1.4-0.3-2.3-1.6-2.1-3l3-15.7c0.3-1.4,1.6-2.3,3-2.1l4.4,0.8c1.4,0.3,2.3,1.6,2.1,3&#10;&#9;&#9;l-3,15.7C396.1,280.3,394.8,281.2,393.4,281z"/>
	<path class="st1_decision-6" d="M392.1,282.5c-0.4,0-0.8,0-1.2-0.1c-3.6-0.7-6-4.2-5.4-7.8l2.1-11.3c0.8-3.6,4.4-5.9,8-5.1&#10;&#9;&#9;c3.5,0.8,5.7,4.1,5.2,7.6l-2.1,11.3C398.1,280.2,395.3,282.5,392.1,282.5z M394.2,261.5c-1.4,0-2.7,1-2.9,2.4l-2.1,11.3&#10;&#9;&#9;c-0.3,1.6,0.8,3.2,2.4,3.5l0,0c1.6,0.3,3.2-0.8,3.5-2.4l2.1-11.3c0.3-1.6-0.8-3.2-2.4-3.5C394.6,261.5,394.4,261.5,394.2,261.5&#10;&#9;&#9;L394.2,261.5z"/>
</g>
</svg>