<?xml version="1.0" standalone="no"?><svg xmlns="http://www.w3.org/2000/svg" viewBox="0 0 1440 320"><path fill="#a2d9ff" fill-opacity="1" d="M0,192L51.4,32L102.9,256L154.3,32L205.7,160L257.1,128L308.6,288L360,288L411.4,32L462.9,160L514.3,192L565.7,160L617.1,160L668.6,288L720,32L771.4,64L822.9,160L874.3,96L925.7,288L977.1,96L1028.6,320L1080,64L1131.4,224L1182.9,288L1234.3,192L1285.7,128L1337.1,32L1388.6,64L1440,0L1440,320L1388.6,320L1337.1,320L1285.7,320L1234.3,320L1182.9,320L1131.4,320L1080,320L1028.6,320L977.1,320L925.7,320L874.3,320L822.9,320L771.4,320L720,320L668.6,320L617.1,320L565.7,320L514.3,320L462.9,320L411.4,320L360,320L308.6,320L257.1,320L205.7,320L154.3,320L102.9,320L51.4,320L0,320Z"></path></svg>